<svg width="141" height="54" viewBox="0 0 141 54" fill="none" xmlns="http://www.w3.org/2000/svg">
<path d="M0.5625 0.0139708L0.171875 0.00293861L0 0.00293861L0 53.5L141 53.5V0.0123869L140.797 0.0123869L140.406 0.00375267L140.016 0.0563247L139.625 0.169845L139.234 0.343759L138.844 0.577213L138.453 0.869065L138.062 1.21789L137.672 1.62196L137.281 2.07932L136.891 2.58772L136.5 3.14467L136.109 3.74744L135.719 4.39309L135.328 5.07843L134.938 5.80013L134.547 6.55465L134.156 7.33828L133.766 8.1472L133.375 8.97744L132.984 9.82492L132.594 10.6855L132.203 11.555L131.812 12.4291L131.422 13.3036L131.031 14.1741L130.641 15.0364L130.25 15.8863L129.859 16.7196L129.469 17.5322L129.078 18.3202L128.688 19.0797L128.297 19.807L127.906 20.4984L127.516 21.1507L127.125 21.7606L126.734 22.3252L126.344 22.8416L125.953 23.3074L125.562 23.7203L125.172 24.0781L124.781 24.3793L124.391 24.6223L124 24.8059L123.609 24.9293L123.219 24.9917L122.828 24.993L122.438 24.9331L122.047 24.8123L121.656 24.6312L121.266 24.3906L120.875 24.0919L120.484 23.7363L120.094 23.3257L119.703 22.8621L119.312 22.3478L118.922 21.7852L118.531 21.1771L118.141 20.5265L117.75 19.8366L117.359 19.1108L116.969 18.3526L116.578 17.5657L116.188 16.754L115.797 15.9215L115.406 15.0722L115.016 14.2103L114.625 13.34L114.234 12.4657L113.844 11.5915L113.453 10.7217L113.062 9.86065L112.672 9.01253L112.281 8.18149L111.891 7.3716L111.5 6.58683L111.109 5.83103L110.719 5.10789L110.328 4.42095L109.938 3.77359L109.547 3.16896L109.156 2.61004L108.766 2.09956L108.375 1.64002L107.984 1.23368L107.594 0.882511L107.203 0.588248L106.812 0.352329L106.422 0.175908L106.031 0.0598508L105.641 0.00472482L105.25 0.0108004L104.859 0.0780477L104.469 0.206137L104.078 0.394442L103.688 0.642039L103.297 0.947717L102.906 1.30998L102.516 1.72704L102.125 2.19688L101.734 2.71718L101.344 3.28539L100.953 3.89874L100.562 4.55421L100.172 5.24861L99.7812 5.97852L99.3906 6.74037L99 7.53043L98.6094 8.34484L98.2188 9.17959L97.8281 10.0306L97.4375 10.8937L97.0469 11.7647L96.6562 12.6393L96.2656 13.5132L95.875 14.3821L95.4844 15.2418L95.0938 16.0881L94.7031 16.9168L94.3125 17.7239L93.9219 18.5054L93.5312 19.2575L93.1406 19.9765L92.75 20.6588L92.3594 21.3012L91.9688 21.9005L91.5781 22.4537L91.1875 22.9582L90.7969 23.4115L90.4062 23.8113L90.0156 24.1557L89.625 24.4431L89.2344 24.6719L88.8438 24.8411L88.4531 24.9499L88.0625 24.9976L87.6719 24.9842L87.2812 24.9096L86.8906 24.7743L86.5 24.5788L86.1094 24.3241L85.7188 24.0116L85.3281 23.6426L84.9375 23.2191L84.5469 22.7431L84.1562 22.2169L83.7656 21.6431L83.375 21.0246L82.9844 20.3642L82.5938 19.6654L82.2031 18.9314L81.8125 18.166L81.4219 17.3728L81.0312 16.5558L80.6406 15.7188L80.25 14.8661L79.8594 14.0019L79.4688 13.1302L79.0781 12.2555L78.6875 11.382L78.2969 10.5139L77.9062 9.65559L77.5156 8.81119L77.125 7.98487L76.7344 7.18066L76.3437 6.4025L75.9531 5.65421L75.5625 4.93944L75.1719 4.26171L74.7812 3.62433L74.3906 3.03043L74 2.4829L73.6094 1.98444L73.2188 1.53748L72.8281 1.14422L72.4375 0.806574L72.0469 0.526205L71.6562 0.304484L71.2656 0.142495L70.875 0.0410335L70.4844 0.000595461L70.0938 0.0213791L69.7031 0.103283L69.3125 0.245905L68.9219 0.448548L68.5313 0.710218L68.1406 1.02963L67.75 1.40523L67.3594 1.83517L66.9688 2.31735L66.5781 2.8494L66.1875 3.42871L65.7969 4.05246L65.4062 4.71759L65.0156 5.42083L64.625 6.15875L64.2344 6.92772L63.8438 7.72399L63.4531 8.54365L63.0625 9.38269L62.6719 10.237L62.2812 11.1024L61.8906 11.9746L61.5 12.8494L61.1094 13.7225L60.7188 14.5896L60.3281 15.4465L59.9375 16.2889L59.5469 17.1128L59.1562 17.9141L58.7656 18.6889L58.375 19.4333L57.9844 20.1438L57.5938 20.8169L57.2031 21.4492L56.8125 22.0377L56.4219 22.5795L56.0312 23.0719L55.6406 23.5125L55.25 23.8992L54.8594 24.23L54.4688 24.5034L54.0781 24.718L53.6875 24.8728L53.2969 24.9669L52.9062 25L52.5156 24.9719L52.125 24.8826L51.7344 24.7328L51.3438 24.523L50.9531 24.2543L50.5625 23.928L50.1719 23.5458L49.7812 23.1095L49.3906 22.6212L49 22.0833L48.6094 21.4985L48.2188 20.8696L47.8281 20.1998L47.4375 19.4922L47.0469 18.7503L46.6562 17.9779L46.2656 17.1786L45.875 16.3564L45.4844 15.5153L45.0938 14.6594L44.7031 13.793L44.3125 12.9202L43.9219 12.0454L43.5312 11.1728L43.1406 10.3067L42.75 9.45133L42.3594 8.6109L41.9688 7.78952L41.5781 6.99121L41.1875 6.21988L40.7969 5.47932L40.4062 4.77314L40.0156 4.1048L39.625 3.47759L39.2344 2.89457L38.8438 2.35859L38.4531 1.87229L38.0625 1.43804L37.6719 1.05797L37.2812 0.733944L36.8906 0.467548L36.5 0.260087L36.1094 0.112576L35.7188 0.0257388L35.3281 0L34.9375 0.0354859L34.5469 0.132023L34.1562 0.289137L33.7656 0.50606L33.375 0.781729L32.9844 1.11479L32.5938 1.50362L32.2031 1.94631L31.8125 2.44069L31.4219 2.98434L31.0312 3.5746L30.6406 4.20858L30.25 4.88316L29.8594 5.59505L29.4688 6.34077L29.0781 7.11665L28.6875 7.91889L28.2969 8.74358L27.9062 9.58666L27.5156 10.444L27.125 11.3114L26.7344 12.1847L26.3438 13.0595L25.9531 13.9315L25.5625 14.7966L25.1719 15.6503L24.7812 16.4887L24.3906 17.3075L24 18.1028L23.6094 18.8706L23.2188 19.6072L22.8281 20.3091L22.4375 20.9726L22.0469 21.5947L21.6562 22.1722L21.2656 22.7023L20.875 23.1825L20.4844 23.6104L20.0938 23.9838L19.7031 24.301L19.3125 24.5604L18.9219 24.7607L18.5313 24.9009L18.1406 24.9804L17.75 24.9988L17.3594 24.956L16.9688 24.8522L16.5781 24.6878L16.1875 24.4638L15.7969 24.1811L15.4062 23.8413L15.0156 23.4459L14.625 22.9969L14.2344 22.4964L13.8438 21.947L13.4531 21.3514L13.0625 20.7123L12.6719 20.0331L12.2812 19.317L11.8906 18.5674L11.5 17.7882L11.1094 16.983L10.7188 16.1559L10.3281 15.3109L9.9375 14.4521L9.54688 13.5838L9.15625 12.7101L8.76562 11.8354L8.375 10.964L7.98438 10.1001L7.59375 9.24793L7.20312 8.4117L6.8125 7.5955L6.42188 6.80332L6.03125 6.03905L5.64062 5.30642L5.25 4.60902L4.85938 3.95027L4.46875 3.3334L4.07812 2.76142L3.6875 2.23715L3.29688 1.76314L2.90625 1.34172L2.51562 0.974957L2.125 0.66464L1.73438 0.412293L1.34375 0.21915L0.953123 0.0861592L0.5625 0.0139708Z" fill="#FFE100"/>
</svg>
